{
  "accessors": [
    {
      "bufferView": 2,
      "componentType": 5126,
      "count": 329,
      "max": [
        0.5,
        0.5,
        0.7361372113227844
      ],
      "min": [
        -0.5,
        -0.5,
        -0.7361372113227844
      ],
      "type": "VEC3"
    },
    {
      "bufferView": 2,
      "byteOffset": 3948,
      "componentType": 5126,
      "count": 329,
      "max": [
        0.9784807562828064,
        0.9972877502441406,
        1.0
      ],
      "min": [
        -0.9859708547592163,
        -0.997287929058075,
        -1.0
      ],
      "type": "VEC3"
    },
    {
      "bufferView": 1,
      "componentType": 5126,
      "count": 329,
      "max": [
        0.9999100565910339,
        0.9999712705612183
      ],
      "min": [
        0.00017146473692264408,
        0.003200232982635498
      ],
      "type": "VEC2"
    },
    {
      "bufferView": 1,
      "byteOffset": 2632,
      "componentType": 5126,
      "count": 329,
      "max": [
        0.9999100565910339,
        0.9999712705612183
      ],
      "min": [
        0.00017146473692264408,
        0.003200232982635498
      ],
      "type": "VEC2"
    },
    {
      "bufferView": 1,
      "byteOffset": 5264,
      "componentType": 5126,
      "count": 329,
      "max": [
        0.9999100565910339,
        0.9999712705612183
      ],
      "min": [
        0.00017146473692264408,
        0.003200232982635498
      ],
      "type": "VEC2"
    },
    {
      "bufferView": 1,
      "byteOffset": 7896,
      "componentType": 5126,
      "count": 329,
      "max": [
        0.9999100565910339,
        0.9999712705612183
      ],
      "min": [
        0.00017146473692264408,
        0.003200232982635498
      ],
      "type": "VEC2"
    },
    {
      "bufferView": 1,
      "byteOffset": 10528,
      "componentType": 5126,
      "count": 329,
      "max": [
        0.9999100565910339,
        0.9999712705612183
      ],
      "min": [
        0.00017146473692264408,
        0.003200232982635498
      ],
      "type": "VEC2"
    },
    {
      "bufferView": 1,
      "byteOffset": 13160,
      "componentType": 5126,
      "count": 329,
      "max": [
        0.9999100565910339,
        0.9999712705612183
      ],
      "min": [
        0.00017146473692264408,
        0.003200232982635498
      ],
      "type": "VEC2"
    },
    {
      "bufferView": 1,
      "byteOffset": 15792,
      "componentType": 5126,
      "count": 329,
      "max": [
        0.9999100565910339,
        0.9999712705612183
      ],
      "min": [
        0.00017146473692264408,
        0.003200232982635498
      ],
      "type": "VEC2"
    },
    {
      "bufferView": 1,
      "byteOffset": 18424,
      "componentType": 5126,
      "count": 329,
      "max": [
        0.9999100565910339,
        0.9999712705612183
      ],
      "min": [
        0.00017146473692264408,
        0.003200232982635498
      ],
      "type": "VEC2"
    },
    {
      "bufferView": 1,
      "byteOffset": 21056,
      "componentType": 5126,
      "count": 329,
      "max": [
        0.9999100565910339,
        0.9999712705612183
      ],
      "min": [
        0.00017146473692264408,
        0.003200232982635498
      ],
      "type": "VEC2"
    },
    {
      "bufferView": 0,
      "componentType": 5125,
      "count": 792,
      "type": "SCALAR"
    },
    {
      "bufferView": 2,
      "byteOffset": 7896,
      "componentType": 5126,
      "count": 344,
      "max": [
        180.6777801513672,
        22.922618865966797,
        180.6777801513672
      ],
      "min": [
        -180.6777801513672,
        -22.922618865966797,
        -180.67776489257813
      ],
      "type": "VEC3"
    },
    {
      "bufferView": 2,
      "byteOffset": 12024,
      "componentType": 5126,
      "count": 344,
      "max": [
        1.0,
        1.0,
        1.0
      ],
      "min": [
        -1.0,
        -1.0,
        -1.0
      ],
      "type": "VEC3"
    },
    {
      "bufferView": 1,
      "byteOffset": 23688,
      "componentType": 5126,
      "count": 344,
      "max": [
        0.9212445020675659,
        0.9999716281890869
      ],
      "min": [
        8.985400199890137e-05,
        0.00016880035400390625
      ],
      "type": "VEC2"
    },
    {
      "bufferView": 1,
      "byteOffset": 26440,
      "componentType": 5126,
      "count": 344,
      "max": [
        0.9212445020675659,
        0.9999716281890869
      ],
      "min": [
        8.985400199890137e-05,
        0.00016880035400390625
      ],
      "type": "VEC2"
    },
    {
      "bufferView": 1,
      "byteOffset": 29192,
      "componentType": 5126,
      "count": 344,
      "max": [
        0.9212445020675659,
        0.9999716281890869
      ],
      "min": [
        8.985400199890137e-05,
        0.00016880035400390625
      ],
      "type": "VEC2"
    },
    {
      "bufferView": 1,
      "byteOffset": 31944,
      "componentType": 5126,
      "count": 344,
      "max": [
        0.9212445020675659,
        0.9999716281890869
      ],
      "min": [
        8.985400199890137e-05,
        0.00016880035400390625
      ],
      "type": "VEC2"
    },
    {
      "bufferView": 1,
      "byteOffset": 34696,
      "componentType": 5126,
      "count": 344,
      "max": [
        0.9212445020675659,
        0.9999716281890869
      ],
      "min": [
        8.985400199890137e-05,
        0.00016880035400390625
      ],
      "type": "VEC2"
    },
    {
      "bufferView": 1,
      "byteOffset": 37448,
      "componentType": 5126,
      "count": 344,
      "max": [
        0.9212445020675659,
        0.9999716281890869
      ],
      "min": [
        8.985400199890137e-05,
        0.00016880035400390625
      ],
      "type": "VEC2"
    },
    {
      "bufferView": 1,
      "byteOffset": 40200,
      "componentType": 5126,
      "count": 344,
      "max": [
        0.9212445020675659,
        0.9999716281890869
      ],
      "min": [
        8.985400199890137e-05,
        0.00016880035400390625
      ],
      "type": "VEC2"
    },
    {
      "bufferView": 1,
      "byteOffset": 42952,
      "componentType": 5126,
      "count": 344,
      "max": [
        0.9212445020675659,
        0.9999716281890869
      ],
      "min": [
        8.985400199890137e-05,
        0.00016880035400390625
      ],
      "type": "VEC2"
    },
    {
      "bufferView": 1,
      "byteOffset": 45704,
      "componentType": 5126,
      "count": 344,
      "max": [
        0.9212445020675659,
        0.9999716281890869
      ],
      "min": [
        8.985400199890137e-05,
        0.00016880035400390625
      ],
      "type": "VEC2"
    },
    {
      "bufferView": 0,
      "byteOffset": 3168,
      "componentType": 5125,
      "count": 960,
      "type": "SCALAR"
    },
    {
      "bufferView": 2,
      "byteOffset": 16152,
      "componentType": 5126,
      "count": 344,
      "max": [
        110.24398803710938,
        25.539966583251953,
        110.24398803710938
      ],
      "min": [
        -110.24398803710938,
        -25.539966583251953,
        -110.24397277832031
      ],
      "type": "VEC3"
    },
    {
      "bufferView": 2,
      "byteOffset": 20280,
      "componentType": 5126,
      "count": 344,
      "max": [
        1.0,
        1.0,
        1.0
      ],
      "min": [
        -1.0,
        -1.0,
        -1.0
      ],
      "type": "VEC3"
    },
    {
      "bufferView": 1,
      "byteOffset": 48456,
      "componentType": 5126,
      "count": 344,
      "max": [
        0.7151529788970947,
        0.9999555945396423
      ],
      "min": [
        0.00022773444652557373,
        0.00023180246353149414
      ],
      "type": "VEC2"
    },
    {
      "bufferView": 1,
      "byteOffset": 51208,
      "componentType": 5126,
      "count": 344,
      "max": [
        0.7151529788970947,
        0.9999555945396423
      ],
      "min": [
        0.00022773444652557373,
        0.00023180246353149414
      ],
      "type": "VEC2"
    },
    {
      "bufferView": 1,
      "byteOffset": 53960,
      "componentType": 5126,
      "count": 344,
      "max": [
        0.7151529788970947,
        0.9999555945396423
      ],
      "min": [
        0.00022773444652557373,
        0.00023180246353149414
      ],
      "type": "VEC2"
    },
    {
      "bufferView": 1,
      "byteOffset": 56712,
      "componentType": 5126,
      "count": 344,
      "max": [
        0.7151529788970947,
        0.9999555945396423
      ],
      "min": [
        0.00022773444652557373,
        0.00023180246353149414
      ],
      "type": "VEC2"
    },
    {
      "bufferView": 1,
      "byteOffset": 59464,
      "componentType": 5126,
      "count": 344,
      "max": [
        0.7151529788970947,
        0.9999555945396423
      ],
      "min": [
        0.00022773444652557373,
        0.00023180246353149414
      ],
      "type": "VEC2"
    },
    {
      "bufferView": 1,
      "byteOffset": 62216,
      "componentType": 5126,
      "count": 344,
      "max": [
        0.7151529788970947,
        0.9999555945396423
      ],
      "min": [
        0.00022773444652557373,
        0.00023180246353149414
      ],
      "type": "VEC2"
    },
    {
      "bufferView": 1,
      "byteOffset": 64968,
      "componentType": 5126,
      "count": 344,
      "max": [
        0.7151529788970947,
        0.9999555945396423
      ],
      "min": [
        0.00022773444652557373,
        0.00023180246353149414
      ],
      "type": "VEC2"
    },
    {
      "bufferView": 1,
      "byteOffset": 67720,
      "componentType": 5126,
      "count": 344,
      "max": [
        0.7151529788970947,
        0.9999555945396423
      ],
      "min": [
        0.00022773444652557373,
        0.00023180246353149414
      ],
      "type": "VEC2"
    },
    {
      "bufferView": 1,
      "byteOffset": 70472,
      "componentType": 5126,
      "count": 344,
      "max": [
        0.7151529788970947,
        0.9999555945396423
      ],
      "min": [
        0.00022773444652557373,
        0.00023180246353149414
      ],
      "type": "VEC2"
    },
    {
      "bufferView": 0,
      "byteOffset": 7008,
      "componentType": 5125,
      "count": 960,
      "type": "SCALAR"
    },
    {
      "bufferView": 2,
      "byteOffset": 24408,
      "componentType": 5126,
      "count": 324,
      "max": [
        30.445932388305664,
        347.64068603515625,
        30.445932388305664
      ],
      "min": [
        -30.445932388305664,
        -347.64068603515625,
        -30.4459285736084
      ],
      "type": "VEC3"
    },
    {
      "bufferView": 2,
      "byteOffset": 28296,
      "componentType": 5126,
      "count": 324,
      "max": [
        1.0,
        1.0,
        1.0
      ],
      "min": [
        -1.0,
        -1.0,
        -1.0
      ],
      "type": "VEC3"
    },
    {
      "bufferView": 1,
      "byteOffset": 73224,
      "componentType": 5126,
      "count": 324,
      "max": [
        0.4705291986465454,
        0.9999877214431763
      ],
      "min": [
        0.00021023303270339966,
        1.233816146850586e-05
      ],
      "type": "VEC2"
    },
    {
      "bufferView": 1,
      "byteOffset": 75816,
      "componentType": 5126,
      "count": 324,
      "max": [
        0.4705291986465454,
        0.9999877214431763
      ],
      "min": [
        0.00021023303270339966,
        1.233816146850586e-05
      ],
      "type": "VEC2"
    },
    {
      "bufferView": 1,
      "byteOffset": 78408,
      "componentType": 5126,
      "count": 324,
      "max": [
        0.4705291986465454,
        0.9999877214431763
      ],
      "min": [
        0.00021023303270339966,
        1.233816146850586e-05
      ],
      "type": "VEC2"
    },
    {
      "bufferView": 1,
      "byteOffset": 81000,
      "componentType": 5126,
      "count": 324,
      "max": [
        0.4705291986465454,
        0.9999877214431763
      ],
      "min": [
        0.00021023303270339966,
        1.233816146850586e-05
      ],
      "type": "VEC2"
    },
    {
      "bufferView": 1,
      "byteOffset": 83592,
      "componentType": 5126,
      "count": 324,
      "max": [
        0.4705291986465454,
        0.9999877214431763
      ],
      "min": [
        0.00021023303270339966,
        1.233816146850586e-05
      ],
      "type": "VEC2"
    },
    {
      "bufferView": 1,
      "byteOffset": 86184,
      "componentType": 5126,
      "count": 324,
      "max": [
        0.4705291986465454,
        0.9999877214431763
      ],
      "min": [
        0.00021023303270339966,
        1.233816146850586e-05
      ],
      "type": "VEC2"
    },
    {
      "bufferView": 1,
      "byteOffset": 88776,
      "componentType": 5126,
      "count": 324,
      "max": [
        0.4705291986465454,
        0.9999877214431763
      ],
      "min": [
        0.00021023303270339966,
        1.233816146850586e-05
      ],
      "type": "VEC2"
    },
    {
      "bufferView": 1,
      "byteOffset": 91368,
      "componentType": 5126,
      "count": 324,
      "max": [
        0.4705291986465454,
        0.9999877214431763
      ],
      "min": [
        0.00021023303270339966,
        1.233816146850586e-05
      ],
      "type": "VEC2"
    },
    {
      "bufferView": 1,
      "byteOffset": 93960,
      "componentType": 5126,
      "count": 324,
      "max": [
        0.4705291986465454,
        0.9999877214431763
      ],
      "min": [
        0.00021023303270339966,
        1.233816146850586e-05
      ],
      "type": "VEC2"
    },
    {
      "bufferView": 0,
      "byteOffset": 10848,
      "componentType": 5125,
      "count": 960,
      "type": "SCALAR"
    },
    {
      "bufferView": 2,
      "byteOffset": 32184,
      "componentType": 5126,
      "count": 1538,
      "max": [
        18.60824203491211,
        25.09929847717285,
        18.60824203491211
      ],
      "min": [
        -18.60824203491211,
        -25.09929847717285,
        -18.60824203491211
      ],
      "type": "VEC3"
    },
    {
      "bufferView": 2,
      "byteOffset": 50640,
      "componentType": 5126,
      "count": 1538,
      "max": [
        1.0,
        1.0,
        1.0
      ],
      "min": [
        -1.0,
        -1.0,
        -1.0
      ],
      "type": "VEC3"
    },
    {
      "bufferView": 0,
      "byteOffset": 14688,
      "componentType": 5125,
      "count": 9216,
      "type": "SCALAR"
    }
  ],
  "asset": {
    "extras": {
      "author": "alakeshkakati125 (https://sketchfab.com/alakeshkakati125)",
      "license": "CC-BY-4.0 (http://creativecommons.org/licenses/by/4.0/)",
      "source": "https://sketchfab.com/3d-models/flag-of-india-d0a955283a5248d1bbff5fc4ed9a1877",
      "title": "Flag of India"
    },
    "generator": "Sketchfab-12.68.0",
    "version": "2.0"
  },
  "bufferViews": [
    {
      "buffer": 0,
      "byteLength": 51552,
      "name": "floatBufferViews",
      "target": 34963
    },
    {
      "buffer": 0,
      "byteLength": 96552,
      "byteOffset": 51552,
      "byteStride": 8,
      "name": "floatBufferViews",
      "target": 34962
    },
    {
      "buffer": 0,
      "byteLength": 69096,
      "byteOffset": 148104,
      "byteStride": 12,
      "name": "floatBufferViews",
      "target": 34962
    }
  ],
  "buffers": [
    {
      "byteLength": 217200,
      "uri": "scene.bin"
    }
  ],
  "images": [
    {
      "uri": "textures/Material_95_baseColor.png"
    },
    {
      "uri": "textures/Material_97_baseColor.png"
    },
    {
      "uri": "textures/Material_99_baseColor.png"
    },
    {
      "uri": "textures/Material_101_baseColor.png"
    }
  ],
  "materials": [
    {
      "doubleSided": true,
      "name": "Material_95",
      "pbrMetallicRoughness": {
        "baseColorTexture": {
          "index": 0
        },
        "metallicFactor": 0.0,
        "roughnessFactor": 0.9381616368038065
      }
    },
    {
      "doubleSided": true,
      "name": "Material_97",
      "pbrMetallicRoughness": {
        "baseColorTexture": {
          "index": 1
        },
        "metallicFactor": 0.0,
        "roughnessFactor": 0.9381616368038065
      }
    },
    {
      "doubleSided": true,
      "name": "Material_99",
      "pbrMetallicRoughness": {
        "baseColorTexture": {
          "index": 2
        },
        "metallicFactor": 0.0,
        "roughnessFactor": 0.9381616368038065
      }
    },
    {
      "doubleSided": true,
      "name": "Material_101",
      "pbrMetallicRoughness": {
        "baseColorTexture": {
          "index": 3
        },
        "metallicFactor": 0.0,
        "roughnessFactor": 0.9381616368038065
      }
    },
    {
      "doubleSided": true,
      "name": "Material_79",
      "pbrMetallicRoughness": {
        "baseColorFactor": [
          0.764706,
          0.764706,
          0.764706,
          1.0
        ],
        "metallicFactor": 0.0,
        "roughnessFactor": 0.9381616368038065
      }
    }
  ],
  "meshes": [
    {
      "name": "root_Material_95_0",
      "primitives": [
        {
          "attributes": {
            "NORMAL": 1,
            "POSITION": 0,
            "TEXCOORD_0": 2,
            "TEXCOORD_1": 3,
            "TEXCOORD_2": 4,
            "TEXCOORD_3": 5,
            "TEXCOORD_4": 6,
            "TEXCOORD_5": 7,
            "TEXCOORD_6": 8,
            "TEXCOORD_7": 9,
            "TEXCOORD_8": 10
          },
          "indices": 11,
          "material": 0,
          "mode": 4
        }
      ]
    },
    {
      "name": "root_Material_97_0",
      "primitives": [
        {
          "attributes": {
            "NORMAL": 13,
            "POSITION": 12,
            "TEXCOORD_0": 14,
            "TEXCOORD_1": 15,
            "TEXCOORD_2": 16,
            "TEXCOORD_3": 17,
            "TEXCOORD_4": 18,
            "TEXCOORD_5": 19,
            "TEXCOORD_6": 20,
            "TEXCOORD_7": 21,
            "TEXCOORD_8": 22
          },
          "indices": 23,
          "material": 1,
          "mode": 4
        }
      ]
    },
    {
      "name": "root_Material_99_0",
      "primitives": [
        {
          "attributes": {
            "NORMAL": 25,
            "POSITION": 24,
            "TEXCOORD_0": 26,
            "TEXCOORD_1": 27,
            "TEXCOORD_2": 28,
            "TEXCOORD_3": 29,
            "TEXCOORD_4": 30,
            "TEXCOORD_5": 31,
            "TEXCOORD_6": 32,
            "TEXCOORD_7": 33,
            "TEXCOORD_8": 34
          },
          "indices": 35,
          "material": 2,
          "mode": 4
        }
      ]
    },
    {
      "name": "root_Material_101_0",
      "primitives": [
        {
          "attributes": {
            "NORMAL": 37,
            "POSITION": 36,
            "TEXCOORD_0": 38,
            "TEXCOORD_1": 39,
            "TEXCOORD_2": 40,
            "TEXCOORD_3": 41,
            "TEXCOORD_4": 42,
            "TEXCOORD_5": 43,
            "TEXCOORD_6": 44,
            "TEXCOORD_7": 45,
            "TEXCOORD_8": 46
          },
          "indices": 47,
          "material": 3,
          "mode": 4
        }
      ]
    },
    {
      "name": "root_Material_79_0",
      "primitives": [
        {
          "attributes": {
            "NORMAL": 49,
            "POSITION": 48
          },
          "indices": 50,
          "material": 4,
          "mode": 4
        }
      ]
    }
  ],
  "nodes": [
    {
      "children": [
        1
      ],
      "matrix": [
        1.0,
        0.0,
        0.0,
        0.0,
        0.0,
        2.220446049250313e-16,
        -1.0,
        0.0,
        0.0,
        1.0,
        2.220446049250313e-16,
        0.0,
        0.0,
        0.0,
        0.0,
        1.0
      ],
      "name": "Sketchfab_model"
    },
    {
      "children": [
        2
      ],
      "matrix": [
        1.0,
        0.0,
        0.0,
        0.0,
        0.0,
        0.0,
        1.0,
        0.0,
        0.0,
        -1.0,
        0.0,
        0.0,
        0.0,
        0.0,
        0.0,
        1.0
      ],
      "name": "1b8d5e8c909e46328202ed14b8e9c7c9.fbx"
    },
    {
      "children": [
        3
      ],
      "name": "RootNode"
    },
    {
      "children": [
        4,
        7,
        10,
        13,
        16
      ],
      "name": "root"
    },
    {
      "children": [
        5
      ],
      "name": "root"
    },
    {
      "children": [
        6
      ],
      "matrix": [
        5.413519545010623e-18,
        0.0,
        0.08840948343276978,
        0.0,
        0.8572160601615906,
        5.2489345212729844e-17,
        -5.2489345212729844e-17,
        0.0,
        -2.2519665014581615e-17,
        0.36777403950691223,
        1.3789317838989002e-33,
        0.0,
        0.8808125257492065,
        1.6241602897644043,
        0.8608386516571045,
        1.0
      ],
      "name": "Object_5"
    },
    {
      "mesh": 0,
      "name": "root_Material_95_0"
    },
    {
      "children": [
        8
      ],
      "name": "root"
    },
    {
      "children": [
        9
      ],
      "matrix": [
        0.0010000000474974513,
        0.0,
        -0.0,
        0.0,
        0.0,
        0.0010000000474974513,
        0.0,
        0.0,
        0.0,
        0.0,
        0.0010000000474974513,
        0.0,
        1.3084660768508911,
        0.2767752707004547,
        0.8634297251701355,
        1.0
      ],
      "name": "Object_8"
    },
    {
      "mesh": 1,
      "name": "root_Material_97_0"
    },
    {
      "children": [
        11
      ],
      "name": "root"
    },
    {
      "children": [
        12
      ],
      "matrix": [
        0.0010000000474974513,
        0.0,
        -0.0,
        0.0,
        0.0,
        0.0010000000474974513,
        0.0,
        0.0,
        0.0,
        0.0,
        0.0010000000474974513,
        0.0,
        1.3107969760894775,
        0.32523787021636963,
        0.8618461489677429,
        1.0
      ],
      "name": "Object_11"
    },
    {
      "mesh": 2,
      "name": "root_Material_99_0"
    },
    {
      "children": [
        14
      ],
      "name": "root"
    },
    {
      "children": [
        15
      ],
      "matrix": [
        0.001074030646122992,
        0.0,
        -0.0,
        0.0,
        0.0,
        0.0023271224927157164,
        0.0,
        0.0,
        0.0,
        0.0,
        0.001074030646122992,
        0.0,
        1.31064772605896,
        1.1387898921966553,
        0.8654423952102661,
        1.0
      ],
      "name": "Object_14"
    },
    {
      "mesh": 3,
      "name": "root_Material_101_0"
    },
    {
      "children": [
        17
      ],
      "name": "root"
    },
    {
      "children": [
        18
      ],
      "matrix": [
        0.0018671980360522866,
        0.0,
        0.0,
        0.0,
        0.0,
        9.381754765368906e-11,
        -0.0015739970840513706,
        0.0,
        -0.0,
        0.0020854461472481485,
        1.2430229082449175e-10,
        0.0,
        1.3118820190429688,
        1.9789758920669556,
        0.8641762137413025,
        1.0
      ],
      "name": "Object_17"
    },
    {
      "mesh": 4,
      "name": "root_Material_79_0"
    }
  ],
  "samplers": [
    {
      "magFilter": 9729,
      "minFilter": 9987,
      "wrapS": 10497,
      "wrapT": 10497
    }
  ],
  "scene": 0,
  "scenes": [
    {
      "name": "Sketchfab_Scene",
      "nodes": [
        0
      ]
    }
  ],
  "textures": [
    {
      "sampler": 0,
      "source": 0
    },
    {
      "sampler": 0,
      "source": 1
    },
    {
      "sampler": 0,
      "source": 2
    },
    {
      "sampler": 0,
      "source": 3
    }
  ]
}
